<mxfile host="app.diagrams.net" modified="2024-03-31T14:28:00.807Z" agent="Mozilla/5.0 (Windows NT 10.0; Win64; x64) AppleWebKit/537.36 (KHTML, like Gecko) Chrome/123.0.0.0 Safari/537.36 Edg/123.0.0.0" etag="KWNKbWgBWvuDC8tHRswO" version="24.2.1" type="device">
  <diagram name="Page-1" id="UMQ7vEW5yNKTohDS2xXE">
    <mxGraphModel dx="2084" dy="1086" grid="1" gridSize="10" guides="1" tooltips="1" connect="1" arrows="1" fold="1" page="1" pageScale="1" pageWidth="3300" pageHeight="4681" math="0" shadow="0">
      <root>
        <mxCell id="0" />
        <mxCell id="1" parent="0" />
        <mxCell id="wXFUtPqiOOo7Z2l05gRR-2" style="edgeStyle=orthogonalEdgeStyle;rounded=0;orthogonalLoop=1;jettySize=auto;html=1;exitX=0;exitY=0.75;exitDx=0;exitDy=0;" parent="1" edge="1">
          <mxGeometry relative="1" as="geometry">
            <mxPoint x="430" y="440" as="targetPoint" />
          </mxGeometry>
        </mxCell>
        <mxCell id="YCxtqnGFXXOWaSAPt28m-3" value="Start" style="ellipse;whiteSpace=wrap;html=1;fontSize=20;" parent="1" vertex="1">
          <mxGeometry x="120" y="700" width="90" height="80" as="geometry" />
        </mxCell>
        <mxCell id="YCxtqnGFXXOWaSAPt28m-4" value="Login" style="rounded=0;whiteSpace=wrap;html=1;fontSize=20;" parent="1" vertex="1">
          <mxGeometry x="320" y="710" width="120" height="60" as="geometry" />
        </mxCell>
        <mxCell id="YCxtqnGFXXOWaSAPt28m-5" value="Registration" style="rounded=0;whiteSpace=wrap;html=1;fontSize=20;" parent="1" vertex="1">
          <mxGeometry x="320" y="480" width="120" height="60" as="geometry" />
        </mxCell>
        <mxCell id="YCxtqnGFXXOWaSAPt28m-6" value="" style="endArrow=classic;html=1;rounded=0;" parent="1" edge="1">
          <mxGeometry width="50" height="50" relative="1" as="geometry">
            <mxPoint x="210" y="740" as="sourcePoint" />
            <mxPoint x="320" y="740" as="targetPoint" />
          </mxGeometry>
        </mxCell>
        <mxCell id="AGppjTEn_wyYILZ01gK--5" value="" style="endArrow=classic;html=1;rounded=0;exitX=0.5;exitY=0;exitDx=0;exitDy=0;entryX=0.5;entryY=1;entryDx=0;entryDy=0;" parent="1" source="YCxtqnGFXXOWaSAPt28m-4" target="YCxtqnGFXXOWaSAPt28m-5" edge="1">
          <mxGeometry width="50" height="50" relative="1" as="geometry">
            <mxPoint x="740" y="830" as="sourcePoint" />
            <mxPoint x="790" y="780" as="targetPoint" />
          </mxGeometry>
        </mxCell>
        <mxCell id="AGppjTEn_wyYILZ01gK--6" value="Left click pressed on registration button" style="edgeLabel;html=1;align=center;verticalAlign=middle;resizable=0;points=[];fontSize=15;" parent="AGppjTEn_wyYILZ01gK--5" connectable="0" vertex="1">
          <mxGeometry x="-0.0118" y="2" relative="1" as="geometry">
            <mxPoint x="2" as="offset" />
          </mxGeometry>
        </mxCell>
        <mxCell id="AGppjTEn_wyYILZ01gK--8" value="" style="endArrow=classic;html=1;rounded=0;exitX=1;exitY=0.5;exitDx=0;exitDy=0;entryX=0;entryY=0.5;entryDx=0;entryDy=0;" parent="1" source="YCxtqnGFXXOWaSAPt28m-4" target="YCxtqnGFXXOWaSAPt28m-8" edge="1">
          <mxGeometry width="50" height="50" relative="1" as="geometry">
            <mxPoint x="740" y="830" as="sourcePoint" />
            <mxPoint x="610" y="740" as="targetPoint" />
          </mxGeometry>
        </mxCell>
        <mxCell id="YCxtqnGFXXOWaSAPt28m-9" value="Left click pressed on login button" style="edgeLabel;html=1;align=center;verticalAlign=middle;resizable=0;points=[];fontSize=14;" parent="AGppjTEn_wyYILZ01gK--8" connectable="0" vertex="1">
          <mxGeometry x="-0.2337" y="-1" relative="1" as="geometry">
            <mxPoint x="24" y="-41" as="offset" />
          </mxGeometry>
        </mxCell>
        <mxCell id="YCxtqnGFXXOWaSAPt28m-8" value="Dashboard" style="rounded=0;whiteSpace=wrap;html=1;fontSize=20;" parent="1" vertex="1">
          <mxGeometry x="640" y="710" width="120" height="60" as="geometry" />
        </mxCell>
        <mxCell id="AGppjTEn_wyYILZ01gK--25" style="edgeStyle=orthogonalEdgeStyle;rounded=0;orthogonalLoop=1;jettySize=auto;html=1;entryX=0;entryY=0.5;entryDx=0;entryDy=0;" parent="1" source="1kaZrEzJJGPY4GAtZJVv-1" target="YCxtqnGFXXOWaSAPt28m-14" edge="1">
          <mxGeometry relative="1" as="geometry" />
        </mxCell>
        <mxCell id="AGppjTEn_wyYILZ01gK--26" style="edgeStyle=orthogonalEdgeStyle;rounded=0;orthogonalLoop=1;jettySize=auto;html=1;entryX=0;entryY=0.5;entryDx=0;entryDy=0;" parent="1" source="1kaZrEzJJGPY4GAtZJVv-1" target="YCxtqnGFXXOWaSAPt28m-15" edge="1">
          <mxGeometry relative="1" as="geometry" />
        </mxCell>
        <mxCell id="AGppjTEn_wyYILZ01gK--27" style="edgeStyle=orthogonalEdgeStyle;rounded=0;orthogonalLoop=1;jettySize=auto;html=1;entryX=0;entryY=0.5;entryDx=0;entryDy=0;" parent="1" source="1kaZrEzJJGPY4GAtZJVv-1" target="YCxtqnGFXXOWaSAPt28m-16" edge="1">
          <mxGeometry relative="1" as="geometry" />
        </mxCell>
        <mxCell id="AGppjTEn_wyYILZ01gK--28" style="edgeStyle=orthogonalEdgeStyle;rounded=0;orthogonalLoop=1;jettySize=auto;html=1;entryX=0;entryY=0.5;entryDx=0;entryDy=0;" parent="1" source="1kaZrEzJJGPY4GAtZJVv-1" target="YCxtqnGFXXOWaSAPt28m-17" edge="1">
          <mxGeometry relative="1" as="geometry" />
        </mxCell>
        <mxCell id="1kaZrEzJJGPY4GAtZJVv-1" value="Menu" style="rounded=0;whiteSpace=wrap;html=1;fontSize=20;" parent="1" vertex="1">
          <mxGeometry x="920" y="470" width="120" height="60" as="geometry" />
        </mxCell>
        <mxCell id="1kaZrEzJJGPY4GAtZJVv-6" value="" style="edgeStyle=orthogonalEdgeStyle;rounded=0;orthogonalLoop=1;jettySize=auto;html=1;" parent="1" source="AGppjTEn_wyYILZ01gK--9" target="1kaZrEzJJGPY4GAtZJVv-1" edge="1">
          <mxGeometry relative="1" as="geometry" />
        </mxCell>
        <mxCell id="1kaZrEzJJGPY4GAtZJVv-7" value="Mouse movement" style="edgeLabel;html=1;align=center;verticalAlign=middle;resizable=0;points=[];fontSize=16;" parent="1kaZrEzJJGPY4GAtZJVv-6" vertex="1" connectable="0">
          <mxGeometry x="-0.02" y="-4" relative="1" as="geometry">
            <mxPoint as="offset" />
          </mxGeometry>
        </mxCell>
        <mxCell id="1kaZrEzJJGPY4GAtZJVv-15" value="" style="edgeStyle=orthogonalEdgeStyle;rounded=0;orthogonalLoop=1;jettySize=auto;html=1;exitX=0.75;exitY=1;exitDx=0;exitDy=0;" parent="1" source="AGppjTEn_wyYILZ01gK--9" target="1kaZrEzJJGPY4GAtZJVv-12" edge="1">
          <mxGeometry relative="1" as="geometry" />
        </mxCell>
        <mxCell id="AGppjTEn_wyYILZ01gK--9" value="Courses page" style="rounded=0;whiteSpace=wrap;html=1;fontSize=20;" parent="1" vertex="1">
          <mxGeometry x="920" y="710" width="120" height="60" as="geometry" />
        </mxCell>
        <mxCell id="AGppjTEn_wyYILZ01gK--10" value="" style="endArrow=classic;html=1;rounded=0;exitX=1;exitY=0.5;exitDx=0;exitDy=0;entryX=0;entryY=0.5;entryDx=0;entryDy=0;" parent="1" source="YCxtqnGFXXOWaSAPt28m-8" target="AGppjTEn_wyYILZ01gK--9" edge="1">
          <mxGeometry width="50" height="50" relative="1" as="geometry">
            <mxPoint x="740" y="830" as="sourcePoint" />
            <mxPoint x="790" y="780" as="targetPoint" />
          </mxGeometry>
        </mxCell>
        <mxCell id="AGppjTEn_wyYILZ01gK--11" value="Left clicked pressed&amp;nbsp;&lt;div style=&quot;font-size: 15px;&quot;&gt;on program card&lt;/div&gt;" style="edgeLabel;html=1;align=center;verticalAlign=middle;resizable=0;points=[];fontSize=15;" parent="AGppjTEn_wyYILZ01gK--10" connectable="0" vertex="1">
          <mxGeometry x="-0.05" y="-2" relative="1" as="geometry">
            <mxPoint as="offset" />
          </mxGeometry>
        </mxCell>
        <mxCell id="1kaZrEzJJGPY4GAtZJVv-9" value="" style="edgeStyle=orthogonalEdgeStyle;rounded=0;orthogonalLoop=1;jettySize=auto;html=1;" parent="1" source="YCxtqnGFXXOWaSAPt28m-10" target="1kaZrEzJJGPY4GAtZJVv-8" edge="1">
          <mxGeometry relative="1" as="geometry" />
        </mxCell>
        <mxCell id="1kaZrEzJJGPY4GAtZJVv-11" value="Right click on the course&amp;nbsp;" style="edgeLabel;html=1;align=center;verticalAlign=middle;resizable=0;points=[];fontSize=14;" parent="1kaZrEzJJGPY4GAtZJVv-9" vertex="1" connectable="0">
          <mxGeometry x="-0.0571" y="-2" relative="1" as="geometry">
            <mxPoint as="offset" />
          </mxGeometry>
        </mxCell>
        <mxCell id="AGppjTEn_wyYILZ01gK--18" style="edgeStyle=orthogonalEdgeStyle;rounded=0;orthogonalLoop=1;jettySize=auto;html=1;entryX=0;entryY=0.5;entryDx=0;entryDy=0;" parent="1" source="YCxtqnGFXXOWaSAPt28m-10" target="AGppjTEn_wyYILZ01gK--17" edge="1">
          <mxGeometry relative="1" as="geometry" />
        </mxCell>
        <mxCell id="AGppjTEn_wyYILZ01gK--19" value="Left click pressed on year drop down" style="edgeLabel;html=1;align=center;verticalAlign=middle;resizable=0;points=[];fontSize=16;" parent="AGppjTEn_wyYILZ01gK--18" connectable="0" vertex="1">
          <mxGeometry x="0.025" y="-1" relative="1" as="geometry">
            <mxPoint x="41" y="-14" as="offset" />
          </mxGeometry>
        </mxCell>
        <mxCell id="AGppjTEn_wyYILZ01gK--29" style="edgeStyle=orthogonalEdgeStyle;rounded=0;orthogonalLoop=1;jettySize=auto;html=1;entryX=0;entryY=0.5;entryDx=0;entryDy=0;" parent="1" source="YCxtqnGFXXOWaSAPt28m-10" target="AGppjTEn_wyYILZ01gK--16" edge="1">
          <mxGeometry relative="1" as="geometry" />
        </mxCell>
        <mxCell id="AGppjTEn_wyYILZ01gK--30" value="Left click pressed on the course" style="edgeLabel;html=1;align=center;verticalAlign=middle;resizable=0;points=[];fontSize=16;" parent="AGppjTEn_wyYILZ01gK--29" connectable="0" vertex="1">
          <mxGeometry x="0.0714" y="-1" relative="1" as="geometry">
            <mxPoint x="19" y="20" as="offset" />
          </mxGeometry>
        </mxCell>
        <mxCell id="YCxtqnGFXXOWaSAPt28m-10" value="Courses list" style="rounded=0;whiteSpace=wrap;html=1;fontSize=20;" parent="1" vertex="1">
          <mxGeometry x="920" y="1160" width="120" height="60" as="geometry" />
        </mxCell>
        <mxCell id="AGppjTEn_wyYILZ01gK--12" value="" style="endArrow=classic;html=1;rounded=0;exitX=0.5;exitY=1;exitDx=0;exitDy=0;entryX=0.5;entryY=0;entryDx=0;entryDy=0;" parent="1" source="AGppjTEn_wyYILZ01gK--9" target="YCxtqnGFXXOWaSAPt28m-10" edge="1">
          <mxGeometry width="50" height="50" relative="1" as="geometry">
            <mxPoint x="740" y="830" as="sourcePoint" />
            <mxPoint x="790" y="780" as="targetPoint" />
          </mxGeometry>
        </mxCell>
        <mxCell id="AGppjTEn_wyYILZ01gK--16" value="Updated course tab" style="rounded=0;whiteSpace=wrap;html=1;fontSize=20;" parent="1" vertex="1">
          <mxGeometry x="1240" y="1080" width="120" height="60" as="geometry" />
        </mxCell>
        <mxCell id="1kaZrEzJJGPY4GAtZJVv-8" value="Menu with options: Mute course, Leave course" style="rounded=0;whiteSpace=wrap;html=1;fontSize=14;" parent="1" vertex="1">
          <mxGeometry x="920" y="1290" width="120" height="60" as="geometry" />
        </mxCell>
        <mxCell id="AGppjTEn_wyYILZ01gK--17" value="Updated courses list" style="rounded=0;whiteSpace=wrap;html=1;fontSize=20;" parent="1" vertex="1">
          <mxGeometry x="1240" y="1240" width="120" height="60" as="geometry" />
        </mxCell>
        <mxCell id="YCxtqnGFXXOWaSAPt28m-14" value="Chat" style="rounded=0;whiteSpace=wrap;html=1;fontSize=20;" parent="1" vertex="1">
          <mxGeometry x="1180" y="730" width="120" height="60" as="geometry" />
        </mxCell>
        <mxCell id="YCxtqnGFXXOWaSAPt28m-15" value="Files" style="rounded=0;whiteSpace=wrap;html=1;fontSize=20;" parent="1" vertex="1">
          <mxGeometry x="1180" y="620" width="120" height="60" as="geometry" />
        </mxCell>
        <mxCell id="YCxtqnGFXXOWaSAPt28m-16" value="Links" style="rounded=0;whiteSpace=wrap;html=1;fontSize=20;" parent="1" vertex="1">
          <mxGeometry x="1180" y="510" width="120" height="60" as="geometry" />
        </mxCell>
        <mxCell id="YCxtqnGFXXOWaSAPt28m-17" value="Search" style="rounded=0;whiteSpace=wrap;html=1;fontSize=20;" parent="1" vertex="1">
          <mxGeometry x="1180" y="410" width="120" height="60" as="geometry" />
        </mxCell>
        <mxCell id="1kaZrEzJJGPY4GAtZJVv-17" value="" style="edgeStyle=orthogonalEdgeStyle;rounded=0;orthogonalLoop=1;jettySize=auto;html=1;" parent="1" source="1kaZrEzJJGPY4GAtZJVv-12" target="1kaZrEzJJGPY4GAtZJVv-16" edge="1">
          <mxGeometry relative="1" as="geometry" />
        </mxCell>
        <mxCell id="AGppjTEn_wyYILZ01gK--32" style="edgeStyle=orthogonalEdgeStyle;rounded=0;orthogonalLoop=1;jettySize=auto;html=1;entryX=0;entryY=0.5;entryDx=0;entryDy=0;" parent="1" source="1kaZrEzJJGPY4GAtZJVv-12" target="AGppjTEn_wyYILZ01gK--31" edge="1">
          <mxGeometry relative="1" as="geometry" />
        </mxCell>
        <mxCell id="1kaZrEzJJGPY4GAtZJVv-12" value="Profile section" style="rounded=0;whiteSpace=wrap;html=1;fontSize=20;" parent="1" vertex="1">
          <mxGeometry x="1090" y="890" width="120" height="60" as="geometry" />
        </mxCell>
        <mxCell id="YCxtqnGFXXOWaSAPt28m-19" value="Chat Tab" style="rounded=0;whiteSpace=wrap;html=1;fontSize=20;" parent="1" vertex="1">
          <mxGeometry x="1460" y="730" width="120" height="60" as="geometry" />
        </mxCell>
        <mxCell id="YCxtqnGFXXOWaSAPt28m-20" value="Files Tab" style="rounded=0;whiteSpace=wrap;html=1;fontSize=20;" parent="1" vertex="1">
          <mxGeometry x="1460" y="620" width="120" height="60" as="geometry" />
        </mxCell>
        <mxCell id="1kaZrEzJJGPY4GAtZJVv-25" value="" style="edgeStyle=orthogonalEdgeStyle;rounded=0;orthogonalLoop=1;jettySize=auto;html=1;" parent="1" source="1kaZrEzJJGPY4GAtZJVv-16" target="1kaZrEzJJGPY4GAtZJVv-19" edge="1">
          <mxGeometry relative="1" as="geometry">
            <Array as="points">
              <mxPoint x="1620" y="870" />
              <mxPoint x="1620" y="860" />
            </Array>
          </mxGeometry>
        </mxCell>
        <mxCell id="YCxtqnGFXXOWaSAPt28m-32" value="Left click pressed" style="edgeLabel;html=1;align=center;verticalAlign=middle;resizable=0;points=[];" parent="1kaZrEzJJGPY4GAtZJVv-25" connectable="0" vertex="1">
          <mxGeometry x="0.2794" y="-1" relative="1" as="geometry">
            <mxPoint x="260" y="-11" as="offset" />
          </mxGeometry>
        </mxCell>
        <mxCell id="1kaZrEzJJGPY4GAtZJVv-28" value="" style="edgeStyle=orthogonalEdgeStyle;rounded=0;orthogonalLoop=1;jettySize=auto;html=1;entryX=0;entryY=0.25;entryDx=0;entryDy=0;" parent="1" source="1kaZrEzJJGPY4GAtZJVv-16" target="1kaZrEzJJGPY4GAtZJVv-21" edge="1">
          <mxGeometry relative="1" as="geometry" />
        </mxCell>
        <mxCell id="1kaZrEzJJGPY4GAtZJVv-30" value="" style="edgeStyle=orthogonalEdgeStyle;rounded=0;orthogonalLoop=1;jettySize=auto;html=1;entryX=0;entryY=0.25;entryDx=0;entryDy=0;" parent="1" source="1kaZrEzJJGPY4GAtZJVv-16" target="1kaZrEzJJGPY4GAtZJVv-20" edge="1">
          <mxGeometry relative="1" as="geometry" />
        </mxCell>
        <mxCell id="1kaZrEzJJGPY4GAtZJVv-31" value="" style="edgeStyle=orthogonalEdgeStyle;rounded=0;orthogonalLoop=1;jettySize=auto;html=1;entryX=0;entryY=0.25;entryDx=0;entryDy=0;" parent="1" source="1kaZrEzJJGPY4GAtZJVv-16" target="1kaZrEzJJGPY4GAtZJVv-24" edge="1">
          <mxGeometry relative="1" as="geometry" />
        </mxCell>
        <mxCell id="1kaZrEzJJGPY4GAtZJVv-33" value="" style="edgeStyle=orthogonalEdgeStyle;rounded=0;orthogonalLoop=1;jettySize=auto;html=1;entryX=0;entryY=0.5;entryDx=0;entryDy=0;" parent="1" source="1kaZrEzJJGPY4GAtZJVv-16" target="1kaZrEzJJGPY4GAtZJVv-18" edge="1">
          <mxGeometry relative="1" as="geometry" />
        </mxCell>
        <mxCell id="YCxtqnGFXXOWaSAPt28m-31" value="Left click pressed" style="edgeLabel;html=1;align=center;verticalAlign=middle;resizable=0;points=[];fontSize=13;" parent="1kaZrEzJJGPY4GAtZJVv-33" connectable="0" vertex="1">
          <mxGeometry x="0.4947" y="1" relative="1" as="geometry">
            <mxPoint x="250" y="-9" as="offset" />
          </mxGeometry>
        </mxCell>
        <mxCell id="1kaZrEzJJGPY4GAtZJVv-16" value="Profile page" style="rounded=0;whiteSpace=wrap;html=1;fontSize=20;" parent="1" vertex="1">
          <mxGeometry x="1380" y="840" width="120" height="60" as="geometry" />
        </mxCell>
        <mxCell id="1kaZrEzJJGPY4GAtZJVv-18" value="My Account" style="rounded=0;whiteSpace=wrap;html=1;fontSize=20;" parent="1" vertex="1">
          <mxGeometry x="1740" y="760" width="120" height="60" as="geometry" />
        </mxCell>
        <mxCell id="1kaZrEzJJGPY4GAtZJVv-19" value="Friend Requests" style="rounded=0;whiteSpace=wrap;html=1;fontSize=20;" parent="1" vertex="1">
          <mxGeometry x="1740" y="830" width="120" height="60" as="geometry" />
        </mxCell>
        <mxCell id="1kaZrEzJJGPY4GAtZJVv-20" value="Notifications" style="rounded=0;whiteSpace=wrap;html=1;fontSize=20;" parent="1" vertex="1">
          <mxGeometry x="1740" y="980" width="120" height="60" as="geometry" />
        </mxCell>
        <mxCell id="1kaZrEzJJGPY4GAtZJVv-21" value="Privacy &amp;amp; Safety" style="rounded=0;whiteSpace=wrap;html=1;fontSize=20;" parent="1" vertex="1">
          <mxGeometry x="1740" y="910" width="120" height="60" as="geometry" />
        </mxCell>
        <mxCell id="1kaZrEzJJGPY4GAtZJVv-38" value="" style="edgeStyle=orthogonalEdgeStyle;rounded=0;orthogonalLoop=1;jettySize=auto;html=1;entryX=0.667;entryY=1.017;entryDx=0;entryDy=0;entryPerimeter=0;" parent="1" source="1kaZrEzJJGPY4GAtZJVv-24" target="YCxtqnGFXXOWaSAPt28m-4" edge="1">
          <mxGeometry relative="1" as="geometry">
            <mxPoint x="400" y="870" as="targetPoint" />
            <Array as="points">
              <mxPoint x="1810" y="1390" />
              <mxPoint x="400" y="1390" />
            </Array>
          </mxGeometry>
        </mxCell>
        <mxCell id="1kaZrEzJJGPY4GAtZJVv-24" value="Log Out" style="rounded=0;whiteSpace=wrap;html=1;fontSize=20;" parent="1" vertex="1">
          <mxGeometry x="1740" y="1060" width="120" height="60" as="geometry" />
        </mxCell>
        <mxCell id="AGppjTEn_wyYILZ01gK--34" value="" style="edgeStyle=orthogonalEdgeStyle;rounded=0;orthogonalLoop=1;jettySize=auto;html=1;" parent="1" source="AGppjTEn_wyYILZ01gK--31" target="AGppjTEn_wyYILZ01gK--33" edge="1">
          <mxGeometry relative="1" as="geometry">
            <Array as="points">
              <mxPoint x="1440" y="1090" />
              <mxPoint x="1620" y="1090" />
            </Array>
          </mxGeometry>
        </mxCell>
        <mxCell id="AGppjTEn_wyYILZ01gK--31" value="Messages" style="rounded=0;whiteSpace=wrap;html=1;fontSize=20;" parent="1" vertex="1">
          <mxGeometry x="1380" y="1010" width="120" height="60" as="geometry" />
        </mxCell>
        <mxCell id="YCxtqnGFXXOWaSAPt28m-21" value="Links Tab" style="rounded=0;whiteSpace=wrap;html=1;fontSize=20;" parent="1" vertex="1">
          <mxGeometry x="1460" y="510" width="120" height="60" as="geometry" />
        </mxCell>
        <mxCell id="YCxtqnGFXXOWaSAPt28m-22" value="" style="endArrow=classic;html=1;rounded=0;entryX=0;entryY=0.5;entryDx=0;entryDy=0;" parent="1" source="YCxtqnGFXXOWaSAPt28m-16" target="YCxtqnGFXXOWaSAPt28m-21" edge="1">
          <mxGeometry width="50" height="50" relative="1" as="geometry">
            <mxPoint x="1180" y="710" as="sourcePoint" />
            <mxPoint x="1230" y="660" as="targetPoint" />
          </mxGeometry>
        </mxCell>
        <mxCell id="YCxtqnGFXXOWaSAPt28m-23" value="Left click pressed" style="edgeLabel;html=1;align=center;verticalAlign=middle;resizable=0;points=[];fontSize=16;" parent="YCxtqnGFXXOWaSAPt28m-22" connectable="0" vertex="1">
          <mxGeometry x="0.0048" y="-2" relative="1" as="geometry">
            <mxPoint y="-22" as="offset" />
          </mxGeometry>
        </mxCell>
        <mxCell id="YCxtqnGFXXOWaSAPt28m-24" value="" style="endArrow=classic;html=1;rounded=0;" parent="1" source="YCxtqnGFXXOWaSAPt28m-15" target="YCxtqnGFXXOWaSAPt28m-20" edge="1">
          <mxGeometry width="50" height="50" relative="1" as="geometry">
            <mxPoint x="1300" y="649.23" as="sourcePoint" />
            <mxPoint x="1460" y="649.23" as="targetPoint" />
          </mxGeometry>
        </mxCell>
        <mxCell id="YCxtqnGFXXOWaSAPt28m-25" value="Left click pressed" style="edgeLabel;html=1;align=center;verticalAlign=middle;resizable=0;points=[];fontSize=16;" parent="YCxtqnGFXXOWaSAPt28m-24" connectable="0" vertex="1">
          <mxGeometry x="0.0048" y="-2" relative="1" as="geometry">
            <mxPoint y="-22" as="offset" />
          </mxGeometry>
        </mxCell>
        <mxCell id="YCxtqnGFXXOWaSAPt28m-26" value="" style="endArrow=classic;html=1;rounded=0;" parent="1" source="YCxtqnGFXXOWaSAPt28m-14" target="YCxtqnGFXXOWaSAPt28m-19" edge="1">
          <mxGeometry width="50" height="50" relative="1" as="geometry">
            <mxPoint x="1300" y="759.23" as="sourcePoint" />
            <mxPoint x="1460" y="759.23" as="targetPoint" />
          </mxGeometry>
        </mxCell>
        <mxCell id="YCxtqnGFXXOWaSAPt28m-27" value="Left click pressed" style="edgeLabel;html=1;align=center;verticalAlign=middle;resizable=0;points=[];fontSize=16;" parent="YCxtqnGFXXOWaSAPt28m-26" connectable="0" vertex="1">
          <mxGeometry x="0.0048" y="-2" relative="1" as="geometry">
            <mxPoint y="-22" as="offset" />
          </mxGeometry>
        </mxCell>
        <mxCell id="AGppjTEn_wyYILZ01gK--36" value="" style="edgeStyle=orthogonalEdgeStyle;rounded=0;orthogonalLoop=1;jettySize=auto;html=1;" parent="1" source="AGppjTEn_wyYILZ01gK--33" target="AGppjTEn_wyYILZ01gK--35" edge="1">
          <mxGeometry relative="1" as="geometry" />
        </mxCell>
        <mxCell id="AGppjTEn_wyYILZ01gK--37" value="Left click on&amp;nbsp;&lt;div style=&quot;font-size: 16px;&quot;&gt;new chat button&lt;/div&gt;" style="edgeLabel;html=1;align=center;verticalAlign=middle;resizable=0;points=[];fontSize=16;" parent="AGppjTEn_wyYILZ01gK--36" connectable="0" vertex="1">
          <mxGeometry x="-0.5" y="2" relative="1" as="geometry">
            <mxPoint x="-2" y="20" as="offset" />
          </mxGeometry>
        </mxCell>
        <mxCell id="YCxtqnGFXXOWaSAPt28m-42" value="" style="edgeStyle=orthogonalEdgeStyle;rounded=0;orthogonalLoop=1;jettySize=auto;html=1;" parent="1" source="AGppjTEn_wyYILZ01gK--33" target="AGppjTEn_wyYILZ01gK--35" edge="1">
          <mxGeometry relative="1" as="geometry" />
        </mxCell>
        <mxCell id="AGppjTEn_wyYILZ01gK--33" value="Messages page" style="rounded=0;whiteSpace=wrap;html=1;fontSize=20;" parent="1" vertex="1">
          <mxGeometry x="1560" y="1150" width="120" height="60" as="geometry" />
        </mxCell>
        <mxCell id="AGppjTEn_wyYILZ01gK--35" value="Available people list - Window" style="rounded=0;whiteSpace=wrap;html=1;fontSize=20;" parent="1" vertex="1">
          <mxGeometry x="1560" y="1290" width="120" height="70" as="geometry" />
        </mxCell>
        <mxCell id="YCxtqnGFXXOWaSAPt28m-28" value="Courses list pop up" style="rounded=0;whiteSpace=wrap;html=1;fontSize=20;" parent="1" vertex="1">
          <mxGeometry x="640" y="900" width="120" height="60" as="geometry" />
        </mxCell>
        <mxCell id="YCxtqnGFXXOWaSAPt28m-29" value="" style="endArrow=classic;html=1;rounded=0;entryX=0.5;entryY=0;entryDx=0;entryDy=0;" parent="1" source="YCxtqnGFXXOWaSAPt28m-8" target="YCxtqnGFXXOWaSAPt28m-28" edge="1">
          <mxGeometry width="50" height="50" relative="1" as="geometry">
            <mxPoint x="730" y="840" as="sourcePoint" />
            <mxPoint x="780" y="790" as="targetPoint" />
          </mxGeometry>
        </mxCell>
        <mxCell id="YCxtqnGFXXOWaSAPt28m-30" value="Left click on add courses button" style="edgeLabel;html=1;align=center;verticalAlign=middle;resizable=0;points=[];fontSize=17;" parent="YCxtqnGFXXOWaSAPt28m-29" connectable="0" vertex="1">
          <mxGeometry x="-0.2059" y="3" relative="1" as="geometry">
            <mxPoint y="-1" as="offset" />
          </mxGeometry>
        </mxCell>
        <mxCell id="YCxtqnGFXXOWaSAPt28m-33" value="Left click pressed" style="edgeLabel;html=1;align=center;verticalAlign=middle;resizable=0;points=[];" parent="1" connectable="0" vertex="1">
          <mxGeometry x="1909.9999999999995" y="929.9969230769228" as="geometry" />
        </mxCell>
        <mxCell id="YCxtqnGFXXOWaSAPt28m-34" value="Left click pressed" style="edgeLabel;html=1;align=center;verticalAlign=middle;resizable=0;points=[];" parent="1" connectable="0" vertex="1">
          <mxGeometry x="1909.9999999999995" y="999.9969230769228" as="geometry" />
        </mxCell>
        <mxCell id="YCxtqnGFXXOWaSAPt28m-35" value="Left click pressed" style="edgeLabel;html=1;align=center;verticalAlign=middle;resizable=0;points=[];fontSize=16;" parent="1" connectable="0" vertex="1">
          <mxGeometry x="1809.9999999999995" y="1179.996923076923" as="geometry" />
        </mxCell>
        <mxCell id="1kaZrEzJJGPY4GAtZJVv-34" value="My Account Tab" style="rounded=0;whiteSpace=wrap;html=1;fontSize=20;" parent="1" vertex="1">
          <mxGeometry x="1970" y="760" width="120" height="60" as="geometry" />
        </mxCell>
        <mxCell id="1kaZrEzJJGPY4GAtZJVv-35" value="Friend Request Tab" style="rounded=0;whiteSpace=wrap;html=1;fontSize=20;" parent="1" vertex="1">
          <mxGeometry x="1970" y="830" width="120" height="60" as="geometry" />
        </mxCell>
        <mxCell id="YCxtqnGFXXOWaSAPt28m-36" value="Notifications Tab" style="rounded=0;whiteSpace=wrap;html=1;fontSize=20;" parent="1" vertex="1">
          <mxGeometry x="1970" y="980" width="120" height="60" as="geometry" />
        </mxCell>
        <mxCell id="YCxtqnGFXXOWaSAPt28m-37" value="" style="endArrow=classic;html=1;rounded=0;" parent="1" source="1kaZrEzJJGPY4GAtZJVv-18" target="1kaZrEzJJGPY4GAtZJVv-34" edge="1">
          <mxGeometry width="50" height="50" relative="1" as="geometry">
            <mxPoint x="1630" y="940" as="sourcePoint" />
            <mxPoint x="1680" y="890" as="targetPoint" />
          </mxGeometry>
        </mxCell>
        <mxCell id="YCxtqnGFXXOWaSAPt28m-38" value="" style="endArrow=classic;html=1;rounded=0;entryX=0;entryY=0.5;entryDx=0;entryDy=0;" parent="1" source="1kaZrEzJJGPY4GAtZJVv-19" target="1kaZrEzJJGPY4GAtZJVv-35" edge="1">
          <mxGeometry width="50" height="50" relative="1" as="geometry">
            <mxPoint x="1870" y="800" as="sourcePoint" />
            <mxPoint x="1940" y="800" as="targetPoint" />
          </mxGeometry>
        </mxCell>
        <mxCell id="YCxtqnGFXXOWaSAPt28m-39" value="" style="endArrow=classic;html=1;rounded=0;entryX=0;entryY=0.5;entryDx=0;entryDy=0;" parent="1" source="1kaZrEzJJGPY4GAtZJVv-21" target="1kaZrEzJJGPY4GAtZJVv-36" edge="1">
          <mxGeometry width="50" height="50" relative="1" as="geometry">
            <mxPoint x="1870" y="870" as="sourcePoint" />
            <mxPoint x="1940" y="870" as="targetPoint" />
          </mxGeometry>
        </mxCell>
        <mxCell id="YCxtqnGFXXOWaSAPt28m-40" value="" style="endArrow=classic;html=1;rounded=0;" parent="1" source="1kaZrEzJJGPY4GAtZJVv-20" target="YCxtqnGFXXOWaSAPt28m-36" edge="1">
          <mxGeometry width="50" height="50" relative="1" as="geometry">
            <mxPoint x="1880" y="880" as="sourcePoint" />
            <mxPoint x="1950" y="880" as="targetPoint" />
          </mxGeometry>
        </mxCell>
        <mxCell id="1kaZrEzJJGPY4GAtZJVv-36" value="Privacy &amp;amp; Safety Tab" style="rounded=0;whiteSpace=wrap;html=1;fontSize=20;" parent="1" vertex="1">
          <mxGeometry x="1970" y="910" width="120" height="60" as="geometry" />
        </mxCell>
      </root>
    </mxGraphModel>
  </diagram>
</mxfile>
